<svg version="1.1" xmlns="http://www.w3.org/2000/svg" viewBox="0 0 1406 1552" width="1406" height="1552"><style>@keyframes hdReveal{0%{opacity:0;transform:translateY(8px) scale(.985);}7.1%{opacity:1;transform:none;}94%{opacity:1;transform:none;}100%{opacity:0;transform:translateY(8px) scale(.985);}}.hd-r{transform-box:fill-box;transform-origin:center;opacity:0;animation:hdReveal 10.50s ease-out infinite both;}</style>
  <!-- svg-source:excalidraw -->
  
  <defs>
    <style class="style-fonts">
      @font-face {
        font-family: "Virgil";
        src: url("https://unpkg.com/@excalidraw/excalidraw@undefined/dist/excalidraw-assets/Virgil.woff2");
      }
      @font-face {
        font-family: "Cascadia";
        src: url("https://unpkg.com/@excalidraw/excalidraw@undefined/dist/excalidraw-assets/Cascadia.woff2");
      }
      @font-face {
        font-family: "Assistant";
        src: url("https://unpkg.com/@excalidraw/excalidraw@undefined/dist/excalidraw-assets/Assistant-Regular.woff2");
      }
    </style>
    
  </defs>
  <rect x="0" y="0" width="1406" height="1552" fill="#ffffff"/><g transform="translate(10 10) rotate(0 680 22)"><text x="680" y="0" font-family="Virgil, Segoe UI Emoji" font-size="32px" fill="#1e1e1e" text-anchor="middle" style="white-space: pre;" direction="ltr" dominant-baseline="text-before-edge">claude-md-audit   -   Skill Architecture</text></g><g transform="translate(10 56) rotate(0 680 11)"><text x="680" y="0" font-family="Virgil, Segoe UI Emoji" font-size="15px" fill="#868e96" text-anchor="middle" style="white-space: pre;" direction="ltr" dominant-baseline="text-before-edge">resolve -&gt; fan-out DETECT per file -&gt; barrier + report -&gt; Q&amp;A gate -&gt; fan-out REMEDIATE per file -&gt; summary</text></g><g stroke-linecap="round" transform="translate(540 116) rotate(0 150 32)"><path d="M0 0 C60.86 1.74, 123.57 0.46, 300 0 M0 0 C93.37 1.5, 187.96 2.11, 300 0 M300 0 C300.27 22.07, 301.05 45.1, 300 64 M300 0 C300.18 13.1, 300.76 28.39, 300 64 M300 64 C189.67 66.12, 81.8 65.68, 0 64 M300 64 C198.05 65.49, 95.26 65.85, 0 64 M0 64 C0.17 50.21, 1.28 35.98, 0 0 M0 64 C0.76 49.99, -0.89 34.94, 0 0" stroke="#1e1e1e" stroke-width="3" fill="none"/></g><g transform="translate(548 139) rotate(0 142 12)"><text x="142" y="0" font-family="Virgil, Segoe UI Emoji" font-size="18px" fill="#1e1e1e" text-anchor="middle" style="white-space: pre;" direction="ltr" dominant-baseline="text-before-edge">resolve   (entry)</text></g><g transform="translate(420 186) rotate(0 270 18)"><text x="270" y="0" font-family="Virgil, Segoe UI Emoji" font-size="13px" fill="#868e96" text-anchor="middle" style="white-space: pre;" direction="ltr" dominant-baseline="text-before-edge">parse $ARGUMENTS -&gt; N targets - discover.py</text><text x="270" y="16.25" font-family="Virgil, Segoe UI Emoji" font-size="13px" fill="#868e96" text-anchor="middle" style="white-space: pre;" direction="ltr" dominant-baseline="text-before-edge">classify role: root / ancestor / child / local</text></g><g stroke-linecap="round"><g transform="translate(690 180) rotate(0 0 33)"><path d="M0 0 C-0.62 11.62, -0.27 27.77, 0 66 M0 0 C-0.53 23.22, 0.34 45.49, 0 66" stroke="#1e1e1e" stroke-width="2" fill="none"/></g><g transform="translate(690 180) rotate(0 0 33)"><path d="M-10.19 37.78 C-8.78 41.64, -6.34 50.05, 0 66 M-10.19 37.78 C-7.39 48.19, -3.09 57.71, 0 66" stroke="#1e1e1e" stroke-width="2" fill="none"/></g><g transform="translate(690 180) rotate(0 0 33)"><path d="M10.34 37.84 C7.54 41.74, 5.77 50.14, 0 66 M10.34 37.84 C6.21 48.36, 3.59 57.86, 0 66" stroke="#1e1e1e" stroke-width="2" fill="none"/></g></g><mask/><g stroke-linecap="round" transform="translate(520 246) rotate(0 170 29)"><path d="M0 0 C69.18 1.78, 138.77 2.72, 340 0 M0 0 C117.4 2.02, 235.4 1.39, 340 0 M340 0 C339.88 19.68, 340.86 39.97, 340 58 M340 0 C340.83 13.74, 339.66 26.39, 340 58 M340 58 C269.13 59.84, 195.74 59.4, 0 58 M340 58 C261.17 57.72, 182.74 57.85, 0 58 M0 58 C1.61 39.73, 0.43 23.47, 0 0 M0 58 C-0.2 39.81, -0.53 22.26, 0 0" stroke="#1e1e1e" stroke-width="2" fill="none"/></g><g transform="translate(528 266) rotate(0 162 12)"><text x="162" y="0" font-family="Virgil, Segoe UI Emoji" font-size="18px" fill="#1e1e1e" text-anchor="middle" style="white-space: pre;" direction="ltr" dominant-baseline="text-before-edge">DETECT   (before Q&amp;A)</text></g><g transform="translate(410 310) rotate(0 280 18)"><text x="280" y="0" font-family="Virgil, Segoe UI Emoji" font-size="13px" fill="#868e96" text-anchor="middle" style="white-space: pre;" direction="ltr" dominant-baseline="text-before-edge">1 file: inline in main loop   -   2+ files: Workflow detect.js</text><text x="280" y="16.25" font-family="Virgil, Segoe UI Emoji" font-size="13px" fill="#868e96" text-anchor="middle" style="white-space: pre;" direction="ltr" dominant-baseline="text-before-edge">fan-out = parallel(), one agent per file  (NOT a pipeline)</text></g><g transform="translate(710 360) rotate(0 120 10.5)"><text x="0" y="0" font-family="Virgil, Segoe UI Emoji" font-size="14px" fill="#1e1e1e" text-anchor="start" style="white-space: pre;" direction="ltr" dominant-baseline="text-before-edge">parallel()  fan-out</text></g><g stroke-linecap="round"><g transform="translate(220 366) rotate(0 420 0)"><path d="M0 0 C172.04 -0.87, 345.16 -2.24, 840 0 M0 0 C316.2 -2.97, 633.27 -3.26, 840 0" stroke="#1e1e1e" stroke-width="2" fill="none"/></g></g><mask/><g stroke-linecap="round"><g transform="translate(690 304) rotate(0 0 31)"><path d="M0 0 C-0.44 11.79, 1.04 23.89, 0 62 M0 0 C-0.47 24.75, 0.74 46.94, 0 62" stroke="#1e1e1e" stroke-width="2" fill="none"/></g><g transform="translate(690 304) rotate(0 0 31)"><path d="M-9.83 33.66 C-8.4 38.61, -4.9 43.8, 0 62 M-9.83 33.66 C-6.4 45.53, -1.41 54.76, 0 62" stroke="#1e1e1e" stroke-width="2" fill="none"/></g><g transform="translate(690 304) rotate(0 0 31)"><path d="M10.69 33.97 C7.91 38.72, 7.19 43.84, 0 62 M10.69 33.97 C6.23 45.58, 3.32 54.69, 0 62" stroke="#1e1e1e" stroke-width="2" fill="none"/></g></g><mask/><g stroke-linecap="round" transform="translate(50 406) rotate(0 170 23)"><path d="M0 0 C69.32 0.1, 139.78 -1.12, 340 0 M0 0 C133.86 0.46, 266.9 0.05, 340 0 M340 0 C340.61 11.98, 341.88 26.05, 340 46 M340 0 C340.32 17.18, 340.51 32.35, 340 46 M340 46 C212.86 45.09, 84.05 45.92, 0 46 M340 46 C249.02 47.51, 156.88 47.99, 0 46 M0 46 C1.71 32.59, 1.09 18.87, 0 0 M0 46 C-1 35.99, 0.66 24.11, 0 0" stroke="#1e1e1e" stroke-width="2" fill="none"/></g><g transform="translate(58 420.5) rotate(0 162 11.5)"><text x="162" y="0" font-family="Virgil, Segoe UI Emoji" font-size="17px" fill="#1e1e1e" text-anchor="middle" style="white-space: pre;" direction="ltr" dominant-baseline="text-before-edge">FILE 1   *   root</text></g><g stroke-linecap="round"><g transform="translate(220 366) rotate(0 0 20)"><path d="M0 0 C-0.44 7.99, -0.41 16.08, 0 40 M0 0 C-0.14 8.27, -0.45 16.36, 0 40" stroke="#1e1e1e" stroke-width="2" fill="none"/></g><g transform="translate(220 366) rotate(0 0 20)"><path d="M-7.08 21.3 C-6.02 24.92, -4.54 28.63, 0 40 M-7.08 21.3 C-5.68 25.11, -4.51 28.75, 0 40" stroke="#1e1e1e" stroke-width="2" fill="none"/></g><g transform="translate(220 366) rotate(0 0 20)"><path d="M6.6 21.12 C4.85 24.77, 3.52 28.52, 0 40 M6.6 21.12 C5.15 25.01, 3.47 28.69, 0 40" stroke="#1e1e1e" stroke-width="2" fill="none"/></g></g><mask/><g stroke-linecap="round" transform="translate(50 464) rotate(0 170 66)"><path d="M0 0 C69.39 -0.74, 138.96 -1.71, 340 0 M0 0 C74.09 2.61, 147.32 1.64, 340 0 M340 0 C340.57 45.46, 341.98 93.72, 340 132 M340 0 C339.61 41.02, 339.47 84.55, 340 132 M340 132 C217.39 132.38, 93.55 129.85, 0 132 M340 132 C208.94 129.87, 77.28 129.87, 0 132 M0 132 C-1.31 103.22, 0.36 74.98, 0 0 M0 132 C-0.91 104.88, -0.26 78.64, 0 0" stroke="#1e1e1e" stroke-width="1" fill="none"/></g><g transform="translate(62 474) rotate(0 158 39.5)"><text x="0" y="0" font-family="Virgil, Segoe UI Emoji" font-size="12px" fill="#1e1e1e" text-anchor="start" style="white-space: pre;" direction="ltr" dominant-baseline="text-before-edge">1. read file (+parent if child)</text><text x="0" y="15" font-family="Virgil, Segoe UI Emoji" font-size="12px" fill="#1e1e1e" text-anchor="start" style="white-space: pre;" direction="ltr" dominant-baseline="text-before-edge">2. load audit-criteria.md</text><text x="0" y="30" font-family="Virgil, Segoe UI Emoji" font-size="12px" fill="#1e1e1e" text-anchor="start" style="white-space: pre;" direction="ltr" dominant-baseline="text-before-edge">3. apply CCP / CRP / ADP (+Hygiene)</text><text x="0" y="45" font-family="Virgil, Segoe UI Emoji" font-size="12px" fill="#1e1e1e" text-anchor="start" style="white-space: pre;" direction="ltr" dominant-baseline="text-before-edge">4. schema-validate if claude_md:</text><text x="0" y="60" font-family="Virgil, Segoe UI Emoji" font-size="12px" fill="#1e1e1e" text-anchor="start" style="white-space: pre;" direction="ltr" dominant-baseline="text-before-edge">5. classify -&gt; taxonomy A-G,K + bucket</text></g><g transform="translate(62 604) rotate(0 158 9.5)"><text x="0" y="0" font-family="Virgil, Segoe UI Emoji" font-size="12px" fill="#868e96" text-anchor="start" style="white-space: pre;" direction="ltr" dominant-baseline="text-before-edge">read root file</text></g><g stroke-linecap="round" transform="translate(470 406) rotate(0 170 23)"><path d="M0 0 C69.48 -0.61, 140.53 0.52, 340 0 M0 0 C84.18 -1.45, 168.32 -2.27, 340 0 M340 0 C340.06 14.9, 341.68 28.26, 340 46 M340 0 C340.29 15.45, 340.4 30.13, 340 46 M340 46 C268.76 46.05, 199.54 46.15, 0 46 M340 46 C245.74 46.57, 150.7 47.7, 0 46 M0 46 C0.65 31.06, 0.03 19.11, 0 0 M0 46 C-0.42 33.71, -0.45 19.98, 0 0" stroke="#1e1e1e" stroke-width="2" fill="none"/></g><g transform="translate(478 420.5) rotate(0 162 11.5)"><text x="162" y="0" font-family="Virgil, Segoe UI Emoji" font-size="17px" fill="#1e1e1e" text-anchor="middle" style="white-space: pre;" direction="ltr" dominant-baseline="text-before-edge">FILE 2   *   child</text></g><g stroke-linecap="round"><g transform="translate(640 366) rotate(0 0 20)"><path d="M0 0 C-0.3 7.24, 0.05 17.11, 0 40 M0 0 C-0.29 10.95, -0.39 20.95, 0 40" stroke="#1e1e1e" stroke-width="2" fill="none"/></g><g transform="translate(640 366) rotate(0 0 20)"><path d="M-7.13 21.31 C-5.99 24.18, -4.17 29.66, 0 40 M-7.13 21.31 C-5.59 26.65, -3.81 31.02, 0 40" stroke="#1e1e1e" stroke-width="2" fill="none"/></g><g transform="translate(640 366) rotate(0 0 20)"><path d="M6.55 21.1 C4.88 23.99, 3.88 29.52, 0 40 M6.55 21.1 C4.48 26.48, 2.64 30.9, 0 40" stroke="#1e1e1e" stroke-width="2" fill="none"/></g></g><mask/><g stroke-linecap="round" transform="translate(470 464) rotate(0 170 66)"><path d="M0 0 C69.54 -1.45, 139.7 -0.07, 340 0 M0 0 C92.41 -0.63, 184.74 -0.68, 340 0 M340 0 C339.96 25.67, 341.72 54.54, 340 132 M340 0 C338.84 39.36, 338.63 78.49, 340 132 M340 132 C207.96 130.67, 75.7 130.08, 0 132 M340 132 C205.66 134.79, 71.1 134.11, 0 132 M0 132 C-0.17 106.78, 1.49 77.39, 0 0 M0 132 C0.93 98.38, 1.89 66.08, 0 0" stroke="#1e1e1e" stroke-width="1" fill="none"/></g><g transform="translate(482 474) rotate(0 158 39.5)"><text x="0" y="0" font-family="Virgil, Segoe UI Emoji" font-size="12px" fill="#1e1e1e" text-anchor="start" style="white-space: pre;" direction="ltr" dominant-baseline="text-before-edge">1. read file (+parent if child)</text><text x="0" y="15" font-family="Virgil, Segoe UI Emoji" font-size="12px" fill="#1e1e1e" text-anchor="start" style="white-space: pre;" direction="ltr" dominant-baseline="text-before-edge">2. load audit-criteria.md</text><text x="0" y="30" font-family="Virgil, Segoe UI Emoji" font-size="12px" fill="#1e1e1e" text-anchor="start" style="white-space: pre;" direction="ltr" dominant-baseline="text-before-edge">3. apply CCP / CRP / ADP (+Hygiene)</text><text x="0" y="45" font-family="Virgil, Segoe UI Emoji" font-size="12px" fill="#1e1e1e" text-anchor="start" style="white-space: pre;" direction="ltr" dominant-baseline="text-before-edge">4. schema-validate if claude_md:</text><text x="0" y="60" font-family="Virgil, Segoe UI Emoji" font-size="12px" fill="#1e1e1e" text-anchor="start" style="white-space: pre;" direction="ltr" dominant-baseline="text-before-edge">5. classify -&gt; taxonomy A-G,K + bucket</text></g><g transform="translate(482 604) rotate(0 158 17)"><text x="0" y="0" font-family="Virgil, Segoe UI Emoji" font-size="12px" fill="#868e96" text-anchor="start" style="white-space: pre;" direction="ltr" dominant-baseline="text-before-edge">read child + parent CLAUDE.md</text><text x="0" y="15" font-family="Virgil, Segoe UI Emoji" font-size="12px" fill="#868e96" text-anchor="start" style="white-space: pre;" direction="ltr" dominant-baseline="text-before-edge">CCP cross-file dup -&gt; taxonomy B</text></g><g stroke-linecap="round" transform="translate(890 406) rotate(0 170 23)"><path d="M0 0 C69.63 1.35, 141.27 -0.5, 340 0 M0 0 C103.83 -0.16, 205.74 -0.06, 340 0 M340 0 C339.52 17.81, 341.47 34.47, 340 46 M340 0 C341.17 13.72, 341.2 27.92, 340 46 M340 46 C259.33 44.35, 181.69 43.72, 0 46 M340 46 C242.45 46.96, 144.53 46.07, 0 46 M0 46 C-0.41 33.54, -1.04 19.35, 0 0 M0 46 C-0.76 31.44, -0.47 15.86, 0 0" stroke="#1e1e1e" stroke-width="2" fill="none"/></g><g transform="translate(898 420.5) rotate(0 162 11.5)"><text x="162" y="0" font-family="Virgil, Segoe UI Emoji" font-size="17px" fill="#1e1e1e" text-anchor="middle" style="white-space: pre;" direction="ltr" dominant-baseline="text-before-edge">FILE N   *   local</text></g><g stroke-linecap="round"><g transform="translate(1060 366) rotate(0 0 20)"><path d="M0 0 C-0.16 8.49, 0.52 16.14, 0 40 M0 0 C0.17 12.63, 0.26 25.53, 0 40" stroke="#1e1e1e" stroke-width="2" fill="none"/></g><g transform="translate(1060 366) rotate(0 0 20)"><path d="M-6.62 21.13 C-5.51 25.27, -3.47 28.57, 0 40 M-6.62 21.13 C-4.31 26.98, -2.1 33.14, 0 40" stroke="#1e1e1e" stroke-width="2" fill="none"/></g><g transform="translate(1060 366) rotate(0 0 20)"><path d="M7.06 21.29 C5.35 25.37, 4.57 28.63, 0 40 M7.06 21.29 C5 27.15, 2.84 33.26, 0 40" stroke="#1e1e1e" stroke-width="2" fill="none"/></g></g><mask/><g stroke-linecap="round" transform="translate(890 464) rotate(0 170 66)"><path d="M0 0 C69.7 0.51, 140.44 -1.09, 340 0 M0 0 C110.73 2, 222.16 1.54, 340 0 M340 0 C339.35 32.29, 341.46 64.16, 340 132 M340 0 C340.72 35.7, 340.43 72.42, 340 132 M340 132 C266.53 133.51, 191.18 134.84, 0 132 M340 132 C270.38 133.85, 200.93 133.81, 0 132 M0 132 C2.32 79.94, -0.02 27, 0 0 M0 132 C0.12 91.89, 1.41 53.51, 0 0" stroke="#1e1e1e" stroke-width="1" fill="none"/></g><g transform="translate(902 474) rotate(0 158 39.5)"><text x="0" y="0" font-family="Virgil, Segoe UI Emoji" font-size="12px" fill="#1e1e1e" text-anchor="start" style="white-space: pre;" direction="ltr" dominant-baseline="text-before-edge">1. read file (+parent if child)</text><text x="0" y="15" font-family="Virgil, Segoe UI Emoji" font-size="12px" fill="#1e1e1e" text-anchor="start" style="white-space: pre;" direction="ltr" dominant-baseline="text-before-edge">2. load audit-criteria.md</text><text x="0" y="30" font-family="Virgil, Segoe UI Emoji" font-size="12px" fill="#1e1e1e" text-anchor="start" style="white-space: pre;" direction="ltr" dominant-baseline="text-before-edge">3. apply CCP / CRP / ADP (+Hygiene)</text><text x="0" y="45" font-family="Virgil, Segoe UI Emoji" font-size="12px" fill="#1e1e1e" text-anchor="start" style="white-space: pre;" direction="ltr" dominant-baseline="text-before-edge">4. schema-validate if claude_md:</text><text x="0" y="60" font-family="Virgil, Segoe UI Emoji" font-size="12px" fill="#1e1e1e" text-anchor="start" style="white-space: pre;" direction="ltr" dominant-baseline="text-before-edge">5. classify -&gt; taxonomy A-G,K + bucket</text></g><g transform="translate(902 604) rotate(0 158 17)"><text x="0" y="0" font-family="Virgil, Segoe UI Emoji" font-size="12px" fill="#868e96" text-anchor="start" style="white-space: pre;" direction="ltr" dominant-baseline="text-before-edge">D-group criteria only</text><text x="0" y="15" font-family="Virgil, Segoe UI Emoji" font-size="12px" fill="#868e96" text-anchor="start" style="white-space: pre;" direction="ltr" dominant-baseline="text-before-edge">skip ADP / Hygiene</text></g><g transform="translate(1270 408) rotate(0 55 19.5)"><text x="0" y="0" font-family="Virgil, Segoe UI Emoji" font-size="28px" fill="#868e96" text-anchor="start" style="white-space: pre;" direction="ltr" dominant-baseline="text-before-edge">. . .  N</text></g><g transform="translate(1266 454) rotate(0 65 17)"><text x="65" y="0" font-family="Virgil, Segoe UI Emoji" font-size="12px" fill="#868e96" text-anchor="middle" style="white-space: pre;" direction="ltr" dominant-baseline="text-before-edge">one agent</text><text x="65" y="15" font-family="Virgil, Segoe UI Emoji" font-size="12px" fill="#868e96" text-anchor="middle" style="white-space: pre;" direction="ltr" dominant-baseline="text-before-edge">per file</text></g><g transform="translate(50 656) rotate(0 660 10.5)"><text x="660" y="0" font-family="Virgil, Segoe UI Emoji" font-size="14px" fill="#868e96" text-anchor="middle" style="white-space: pre;" direction="ltr" dominant-baseline="text-before-edge">Detection ONLY  -  no file is edited in this phase</text></g><g stroke-linecap="round"><g transform="translate(90 706) rotate(0 600 0)"><path d="M0 0 C247.88 -0.85, 496.64 -0.41, 1200 0" stroke="#868e96" stroke-width="3.5" fill="none" stroke-dasharray="8 11"/></g></g><mask/><g class="hd-r" style="animation-delay:0.40s;" transform="translate(90 680) rotate(0 600 11)"><text x="600" y="0" font-family="Virgil, Segoe UI Emoji" font-size="15px" fill="#868e96" text-anchor="middle" style="white-space: pre;" direction="ltr" dominant-baseline="text-before-edge">barrier  -  parallel() join  (the one sync point)</text></g><g class="hd-r" style="animation-delay:0.40s;" stroke-linecap="round"><g class="hd-r" style="animation-delay:0.40s;" transform="translate(220 644) rotate(0 235 31)"><path d="M0 0 C97.15 12.8, 194.66 25.06, 470 62" stroke="#868e96" stroke-width="2.5" fill="none" stroke-dasharray="8 10"/></g><g class="hd-r" style="animation-delay:0.95s;" transform="translate(220 644) rotate(0 235 31)"><path d="M440.7 68.45 C446.04 66.56, 452.68 63.93, 470 62" stroke="#868e96" stroke-width="2.5" fill="none"/></g><g class="hd-r" style="animation-delay:0.95s;" transform="translate(220 644) rotate(0 235 31)"><path d="M443.41 48.11 C448.34 50.43, 454.42 52.01, 470 62" stroke="#868e96" stroke-width="2.5" fill="none"/></g></g><mask/><g class="hd-r" style="animation-delay:0.95s;" stroke-linecap="round"><g class="hd-r" style="animation-delay:1.50s;" transform="translate(640 644) rotate(0 25 31)"><path d="M0 0 C9.13 13.38, 19.57 23.71, 50 62" stroke="#868e96" stroke-width="2.5" fill="none" stroke-dasharray="8 10"/></g><g class="hd-r" style="animation-delay:1.50s;" transform="translate(640 644) rotate(0 25 31)"><path d="M24.28 46.56 C28.79 50.48, 34.21 51.17, 50 62" stroke="#868e96" stroke-width="2.5" fill="none"/></g><g class="hd-r" style="animation-delay:1.50s;" transform="translate(640 644) rotate(0 25 31)"><path d="M40.22 33.64 C41.32 40.35, 43.44 43.71, 50 62" stroke="#868e96" stroke-width="2.5" fill="none"/></g></g><mask/><g class="hd-r" style="animation-delay:2.05s;" stroke-linecap="round"><g class="hd-r" style="animation-delay:1.50s;" transform="translate(1060 644) rotate(0 -185 31)"><path d="M0 0 C-77.2 10.88, -154.05 23.89, -370 62" stroke="#868e96" stroke-width="2.5" fill="none" stroke-dasharray="8 10"/></g><g class="hd-r" style="animation-delay:1.50s;" transform="translate(1060 644) rotate(0 -185 31)"><path d="M-344 47.03 C-350.13 48.42, -355.9 51.8, -370 62" stroke="#868e96" stroke-width="2.5" fill="none"/></g><g class="hd-r" style="animation-delay:2.05s;" transform="translate(1060 644) rotate(0 -185 31)"><path d="M-340.46 67.24 C-347.22 64.43, -353.72 63.63, -370 62" stroke="#868e96" stroke-width="2.5" fill="none"/></g></g><mask/><g class="hd-r" style="animation-delay:2.05s;" stroke-linecap="round" transform="translate(500 732) rotate(0 190 30)"><path d="M0 0 C78.3 -0.97, 156.48 -1.53, 380 0 M0 0 C84.53 -1.17, 168.34 -1.19, 380 0 M380 0 C381.12 21.93, 379.81 42.37, 380 60 M380 0 C380.46 19.98, 378.9 39.11, 380 60 M380 60 C245.35 63.11, 112.96 61.8, 0 60 M380 60 C274.94 60.89, 169.61 60.3, 0 60 M0 60 C1.15 46.4, -0.06 31.28, 0 0 M0 60 C0.11 38.4, -0.63 17.53, 0 0" stroke="#1e1e1e" stroke-width="2" fill="none"/></g><g class="hd-r" style="animation-delay:2.05s;" transform="translate(508 753) rotate(0 182 12)"><text x="182" y="0" font-family="Virgil, Segoe UI Emoji" font-size="18px" fill="#1e1e1e" text-anchor="middle" style="white-space: pre;" direction="ltr" dominant-baseline="text-before-edge">collect findings + report</text></g><g class="hd-r" style="animation-delay:2.05s;" transform="translate(410 798) rotate(0 280 10)"><text x="280" y="0" font-family="Virgil, Segoe UI Emoji" font-size="13px" fill="#868e96" text-anchor="middle" style="white-space: pre;" direction="ltr" dominant-baseline="text-before-edge">bucket totals: AUTO / DISCUSS / SPECIAL  -  per-file report</text></g><g class="hd-r" style="animation-delay:7.55s;" stroke-linecap="round"><g class="hd-r" style="animation-delay:2.05s;" transform="translate(690 706) rotate(0 0 13)"><path d="M0 0 C-0.46 5.58, 0.39 10.69, 0 26 M0 0 C0.19 6.17, -0.26 13.13, 0 26" stroke="#1e1e1e" stroke-width="2" fill="none"/></g><g class="hd-r" style="animation-delay:2.60s;" transform="translate(690 706) rotate(0 0 13)"><path d="M-4.54 13.82 C-3.87 16.45, -2.38 18.79, 0 26 M-4.54 13.82 C-3.3 16.67, -2.47 20.03, 0 26" stroke="#1e1e1e" stroke-width="2" fill="none"/></g><g class="hd-r" style="animation-delay:2.05s;" transform="translate(690 706) rotate(0 0 13)"><path d="M4.35 13.75 C3.17 16.43, 2.83 18.79, 0 26 M4.35 13.75 C3.4 16.61, 2.04 20, 0 26" stroke="#1e1e1e" stroke-width="2" fill="none"/></g></g><mask/><g class="hd-r" style="animation-delay:2.60s;" stroke-linecap="round" transform="translate(515 852) rotate(0 175 58)"><path d="M176 0 C211.06 14.55, 248.37 25.02, 350 59 M176 0 C219.22 14.74, 264.56 29.91, 350 59 M350 59 C295.03 74.64, 239.38 93.52, 176 116 M350 59 C290.67 78.22, 232.9 97.03, 176 116 M176 116 C106.82 92.52, 37.96 67.68, 0 59 M176 116 C111.76 94.26, 46.44 73.99, 0 59 M0 59 C52.38 40.57, 106.69 22.3, 176 0 M0 59 C41.47 43.98, 84.39 31.34, 176 0" stroke="#1e1e1e" stroke-width="3" fill="none"/></g><g class="hd-r" style="animation-delay:2.05s;" transform="translate(523 899.5) rotate(0 167 13.5)"><text x="167" y="0" font-family="Virgil, Segoe UI Emoji" font-size="21px" fill="#1e1e1e" text-anchor="middle" style="white-space: pre;" direction="ltr" dominant-baseline="text-before-edge">Q&amp;A GATE</text></g><g class="hd-r" style="animation-delay:2.60s;" transform="translate(340 974) rotate(0 350 18)"><text x="350" y="0" font-family="Virgil, Segoe UI Emoji" font-size="13px" fill="#868e96" text-anchor="middle" style="white-space: pre;" direction="ltr" dominant-baseline="text-before-edge">human-in-the-loop  -  decide each DISCUSS / SPECIAL finding</text><text x="350" y="16.25" font-family="Virgil, Segoe UI Emoji" font-size="13px" fill="#868e96" text-anchor="middle" style="white-space: pre;" direction="ltr" dominant-baseline="text-before-edge">AUTO auto-applies   -   inferred when non-interactive ('fast')</text></g><g class="hd-r" style="animation-delay:7.55s;" stroke-linecap="round"><g class="hd-r" style="animation-delay:2.60s;" transform="translate(690 792) rotate(0 0 30)"><path d="M0 0 C-0.33 10.82, -0.54 25.87, 0 60 M0 0 C-0.92 16.16, 0.42 34.16, 0 60" stroke="#1e1e1e" stroke-width="2" fill="none"/></g><g class="hd-r" style="animation-delay:2.60s;" transform="translate(690 792) rotate(0 0 30)"><path d="M-10.24 31.8 C-8.62 35.99, -6.71 44.45, 0 60 M-10.24 31.8 C-8.17 39.15, -3.98 48.33, 0 60" stroke="#1e1e1e" stroke-width="2" fill="none"/></g><g class="hd-r" style="animation-delay:2.60s;" transform="translate(690 792) rotate(0 0 30)"><path d="M10.28 31.82 C7.64 36.05, 5.3 44.51, 0 60 M10.28 31.82 C6.66 39.12, 5.15 48.29, 0 60" stroke="#1e1e1e" stroke-width="2" fill="none"/></g></g><mask/><g class="hd-r" style="animation-delay:2.60s;" stroke-linecap="round"><g class="hd-r" style="animation-delay:2.60s;" transform="translate(690 968) rotate(0 0 42)"><path d="M0 0 C0.12 17.3, -0.57 36.13, 0 84 M0 0 C-0.38 24.47, -0.98 48.86, 0 84" stroke="#1e1e1e" stroke-width="2" fill="none"/></g><g class="hd-r" style="animation-delay:2.60s;" transform="translate(690 968) rotate(0 0 42)"><path d="M-10.75 55.99 C-8.91 61.76, -7.37 68.97, 0 84 M-10.75 55.99 C-7.73 64.45, -5.26 72.86, 0 84" stroke="#1e1e1e" stroke-width="2" fill="none"/></g><g class="hd-r" style="animation-delay:7.55s;" transform="translate(690 968) rotate(0 0 42)"><path d="M9.77 55.64 C7.35 61.29, 4.63 68.57, 0 84 M9.77 55.64 C6.93 64.24, 3.54 72.75, 0 84" stroke="#1e1e1e" stroke-width="2" fill="none"/></g></g><mask/><g class="hd-r" style="animation-delay:2.60s;" stroke-linecap="round" transform="translate(520 1052) rotate(0 170 29)"><path d="M0 0 C70.17 1.05, 140.01 1.17, 340 0 M0 0 C100.34 -1.86, 199.75 -0.89, 340 0 M340 0 C341.78 20.57, 340.92 41.85, 340 58 M340 0 C339.24 11.51, 340.72 23.77, 340 58 M340 58 C238.25 57.07, 134.97 56.2, 0 58 M340 58 C260.53 57.04, 182.41 57.6, 0 58 M0 58 C-0.09 38.81, 1.55 16.61, 0 0 M0 58 C-0.21 43.09, 0.03 29.17, 0 0" stroke="#1e1e1e" stroke-width="2" fill="none"/></g><g class="hd-r" style="animation-delay:2.60s;" transform="translate(528 1072) rotate(0 162 12)"><text x="162" y="0" font-family="Virgil, Segoe UI Emoji" font-size="18px" fill="#1e1e1e" text-anchor="middle" style="white-space: pre;" direction="ltr" dominant-baseline="text-before-edge">REMEDIATE   (after Q&amp;A)</text></g><g class="hd-r" style="animation-delay:2.05s;" transform="translate(390 1116) rotate(0 300 18)"><text x="300" y="0" font-family="Virgil, Segoe UI Emoji" font-size="13px" fill="#868e96" text-anchor="middle" style="white-space: pre;" direction="ltr" dominant-baseline="text-before-edge">1 file: inline   -   2+ files: Workflow remediate.js</text><text x="300" y="16.25" font-family="Virgil, Segoe UI Emoji" font-size="13px" fill="#868e96" text-anchor="middle" style="white-space: pre;" direction="ltr" dominant-baseline="text-before-edge">fan-out = parallel(), one lane per file  (disjoint - no conflict)</text></g><g class="hd-r" style="animation-delay:2.05s;" transform="translate(710 1166) rotate(0 120 10.5)"><text x="0" y="0" font-family="Virgil, Segoe UI Emoji" font-size="14px" fill="#1e1e1e" text-anchor="start" style="white-space: pre;" direction="ltr" dominant-baseline="text-before-edge">parallel()  fan-out</text></g><g class="hd-r" style="animation-delay:2.60s;" stroke-linecap="round"><g class="hd-r" style="animation-delay:3.15s;" transform="translate(220 1172) rotate(0 420 0)"><path d="M0 0 C174.4 2.14, 349.42 1.88, 840 0 M0 0 C273.02 -1.73, 545.98 -1.85, 840 0" stroke="#1e1e1e" stroke-width="2" fill="none"/></g></g><mask/><g class="hd-r" style="animation-delay:3.15s;" stroke-linecap="round"><g class="hd-r" style="animation-delay:3.15s;" transform="translate(690 1110) rotate(0 0 31)"><path d="M0 0 C-1.14 13.72, -0.7 24.75, 0 62 M0 0 C1.05 21.07, 0.8 40.45, 0 62" stroke="#1e1e1e" stroke-width="2" fill="none"/></g><g class="hd-r" style="animation-delay:3.70s;" transform="translate(690 1110) rotate(0 0 31)"><path d="M-9.43 33.52 C-8.34 40.26, -5.94 44.31, 0 62 M-9.43 33.52 C-5.49 43.34, -2.6 51.56, 0 62" stroke="#1e1e1e" stroke-width="2" fill="none"/></g><g class="hd-r" style="animation-delay:3.70s;" transform="translate(690 1110) rotate(0 0 31)"><path d="M11.08 34.12 C7.91 40.76, 6.05 44.69, 0 62 M11.08 34.12 C8.19 43.93, 4.25 51.95, 0 62" stroke="#1e1e1e" stroke-width="2" fill="none"/></g></g><mask/><g class="hd-r" style="animation-delay:3.70s;" stroke-linecap="round" transform="translate(50 1212) rotate(0 170 23)"><path d="M0 0 C70.31 -3.29, 141.02 -2.68, 340 0 M0 0 C115.47 1.11, 231.26 0.97, 340 0 M340 0 C338.62 16.36, 338.06 30.91, 340 46 M340 0 C340.75 15.27, 339.6 30.37, 340 46 M340 46 C247.31 46.85, 156.62 47.25, 0 46 M340 46 C248.38 46.82, 157.88 47.74, 0 46 M0 46 C-1.03 28.43, 1.17 13.54, 0 0 M0 46 C0.81 29.3, 1.04 11.11, 0 0" stroke="#1e1e1e" stroke-width="2" fill="none"/></g><g class="hd-r" style="animation-delay:3.70s;" transform="translate(58 1226.5) rotate(0 162 11.5)"><text x="162" y="0" font-family="Virgil, Segoe UI Emoji" font-size="17px" fill="#1e1e1e" text-anchor="middle" style="white-space: pre;" direction="ltr" dominant-baseline="text-before-edge">FIX 1   *   root</text></g><g class="hd-r" style="animation-delay:4.25s;" stroke-linecap="round"><g class="hd-r" style="animation-delay:3.70s;" transform="translate(220 1172) rotate(0 0 20)"><path d="M0 0 C-0.25 8.98, -0.75 16.56, 0 40 M0 0 C0.5 13.97, 0.46 28.19, 0 40" stroke="#1e1e1e" stroke-width="2" fill="none"/></g><g class="hd-r" style="animation-delay:4.25s;" transform="translate(220 1172) rotate(0 0 20)"><path d="M-6.34 21.03 C-5.31 25.61, -4.48 28.81, 0 40 M-6.34 21.03 C-3.63 27.49, -1.4 34.2, 0 40" stroke="#1e1e1e" stroke-width="2" fill="none"/></g><g class="hd-r" style="animation-delay:4.25s;" transform="translate(220 1172) rotate(0 0 20)"><path d="M7.33 21.39 C5.52 25.94, 3.5 29.07, 0 40 M7.33 21.39 C5.17 27.73, 2.51 34.32, 0 40" stroke="#1e1e1e" stroke-width="2" fill="none"/></g></g><mask/><g class="hd-r" style="animation-delay:4.80s;" stroke-linecap="round" transform="translate(50 1270) rotate(0 170 28)"><path d="M0 0 C70.38 0.4, 142.86 1.26, 340 0 M0 0 C123.7 -1.27, 247.67 -1.96, 340 0 M340 0 C338.47 23.09, 338.05 45.1, 340 56 M340 0 C340.01 16.69, 340.54 31.75, 340 56 M340 56 C254.51 55.47, 168.78 55.18, 0 56 M340 56 C208.31 57.71, 76.94 58.15, 0 56 M0 56 C1.49 38.91, 1.97 25.35, 0 0 M0 56 C1.46 36.14, 0.68 17.54, 0 0" stroke="#1e1e1e" stroke-width="1" fill="none"/></g><g class="hd-r" style="animation-delay:4.25s;" transform="translate(62 1278) rotate(0 158 9.5)"><text x="0" y="0" font-family="Virgil, Segoe UI Emoji" font-size="12px" fill="#1e1e1e" text-anchor="start" style="white-space: pre;" direction="ltr" dominant-baseline="text-before-edge">Read -&gt; Edit  (decided edits, in order)</text></g><g class="hd-r" style="animation-delay:4.80s;" transform="translate(62 1334) rotate(0 158 9.5)"><text x="0" y="0" font-family="Virgil, Segoe UI Emoji" font-size="12px" fill="#868e96" text-anchor="start" style="white-space: pre;" direction="ltr" dominant-baseline="text-before-edge">apply AUTO edits</text></g><g class="hd-r" style="animation-delay:4.80s;" stroke-linecap="round" transform="translate(470 1212) rotate(0 170 23)"><path d="M0 0 C70.47 -1.34, 141.76 -1.03, 340 0 M0 0 C135.12 -0.79, 270.01 -1.35, 340 0 M340 0 C338.08 15.28, 341.85 33.12, 340 46 M340 0 C340.71 13.54, 339.48 28.15, 340 46 M340 46 C237.88 47.81, 138.77 47.48, 0 46 M340 46 C245.1 45.88, 151.7 46.12, 0 46 M0 46 C-1.17 30.91, 1.02 13.78, 0 0 M0 46 C0.47 36.23, 1.02 25.38, 0 0" stroke="#1e1e1e" stroke-width="2" fill="none"/></g><g class="hd-r" style="animation-delay:4.80s;" transform="translate(478 1226.5) rotate(0 162 11.5)"><text x="162" y="0" font-family="Virgil, Segoe UI Emoji" font-size="17px" fill="#1e1e1e" text-anchor="middle" style="white-space: pre;" direction="ltr" dominant-baseline="text-before-edge">FIX 2   *   child</text></g><g class="hd-r" style="animation-delay:5.35s;" stroke-linecap="round"><g class="hd-r" style="animation-delay:5.35s;" transform="translate(640 1172) rotate(0 0 20)"><path d="M0 0 C-0.51 8.23, -0.68 17.59, 0 40 M0 0 C-0.05 8.64, 0.12 16.77, 0 40" stroke="#1e1e1e" stroke-width="2" fill="none"/></g><g class="hd-r" style="animation-delay:5.35s;" transform="translate(640 1172) rotate(0 0 20)"><path d="M-6.79 21.19 C-5.78 24.98, -4.54 29.92, 0 40 M-6.79 21.19 C-5.36 25.36, -3.76 28.99, 0 40" stroke="#1e1e1e" stroke-width="2" fill="none"/></g><g class="hd-r" style="animation-delay:5.35s;" transform="translate(640 1172) rotate(0 0 20)"><path d="M6.89 21.22 C5.04 25.04, 3.44 29.97, 0 40 M6.89 21.22 C5.42 25.34, 4.12 28.97, 0 40" stroke="#1e1e1e" stroke-width="2" fill="none"/></g></g><mask/><g class="hd-r" style="animation-delay:5.90s;" stroke-linecap="round" transform="translate(470 1270) rotate(0 170 28)"><path d="M0 0 C70.54 2.36, 140.94 0.24, 340 0 M0 0 C75.35 0.03, 149.09 0.25, 340 0 M340 0 C339.03 15.24, 338.96 25.77, 340 56 M340 0 C341.01 14.74, 341.46 31.09, 340 56 M340 56 C245.08 56.43, 148.26 55.41, 0 56 M340 56 C205.03 56.77, 70.77 57.86, 0 56 M0 56 C0.38 41.52, 0.86 25.84, 0 0 M0 56 C1.06 33.38, 0.6 12.43, 0 0" stroke="#1e1e1e" stroke-width="1" fill="none"/></g><g class="hd-r" style="animation-delay:5.90s;" transform="translate(482 1278) rotate(0 158 9.5)"><text x="0" y="0" font-family="Virgil, Segoe UI Emoji" font-size="12px" fill="#1e1e1e" text-anchor="start" style="white-space: pre;" direction="ltr" dominant-baseline="text-before-edge">Read -&gt; Edit  (decided edits, in order)</text></g><g class="hd-r" style="animation-delay:5.90s;" transform="translate(482 1334) rotate(0 158 9.5)"><text x="0" y="0" font-family="Virgil, Segoe UI Emoji" font-size="12px" fill="#868e96" text-anchor="start" style="white-space: pre;" direction="ltr" dominant-baseline="text-before-edge">apply decided DISCUSS edits</text></g><g class="hd-r" style="animation-delay:5.90s;" stroke-linecap="round" transform="translate(890 1212) rotate(0 170 23)"><path d="M0 0 C70.63 -2.04, 142.51 -2.06, 340 0 M0 0 C85.44 0.5, 171.43 0.87, 340 0 M340 0 C341.53 8.99, 341.65 20.93, 340 46 M340 0 C339.6 13.8, 340.29 25.94, 340 46 M340 46 C228.46 46.11, 118.25 45.04, 0 46 M340 46 C243.15 46.27, 145.53 45.82, 0 46 M0 46 C1.77 29.38, -0.04 14.02, 0 0 M0 46 C0.13 33.96, -1 21.26, 0 0" stroke="#1e1e1e" stroke-width="2" fill="none"/></g><g class="hd-r" style="animation-delay:7.55s;" transform="translate(898 1226.5) rotate(0 162 11.5)"><text x="162" y="0" font-family="Virgil, Segoe UI Emoji" font-size="17px" fill="#1e1e1e" text-anchor="middle" style="white-space: pre;" direction="ltr" dominant-baseline="text-before-edge">FIX N   *   local</text></g><g class="hd-r" style="animation-delay:5.90s;" stroke-linecap="round"><g class="hd-r" style="animation-delay:5.90s;" transform="translate(1060 1172) rotate(0 0 20)"><path d="M0 0 C-0.37 7.48, -0.22 16.62, 0 40 M0 0 C-0.19 10.32, 0.17 21.36, 0 40" stroke="#1e1e1e" stroke-width="2" fill="none"/></g><g class="hd-r" style="animation-delay:5.90s;" transform="translate(1060 1172) rotate(0 0 20)"><path d="M-6.79 21.19 C-5.71 24.22, -4.13 28.94, 0 40 M-6.79 21.19 C-5.25 25.83, -3.07 31.19, 0 40" stroke="#1e1e1e" stroke-width="2" fill="none"/></g><g class="hd-r" style="animation-delay:5.90s;" transform="translate(1060 1172) rotate(0 0 20)"><path d="M6.89 21.23 C5.11 24.28, 3.83 28.98, 0 40 M6.89 21.23 C4.77 25.88, 3.29 31.24, 0 40" stroke="#1e1e1e" stroke-width="2" fill="none"/></g></g><mask/><g class="hd-r" style="animation-delay:5.90s;" stroke-linecap="round" transform="translate(890 1270) rotate(0 170 28)"><path d="M0 0 C70.69 1.65, 141.68 1.89, 340 0 M0 0 C93.67 -1.88, 187.85 -2.07, 340 0 M340 0 C342.48 14.58, 338.75 32.85, 340 56 M340 0 C340.89 14.78, 339.27 28.43, 340 56 M340 56 C235.65 54.73, 130.41 55.64, 0 56 M340 56 C269.74 57.17, 200.59 56.23, 0 56 M0 56 C-0.73 40.12, -0.26 26.33, 0 0 M0 56 C0.67 41.82, 0.53 29.73, 0 0" stroke="#1e1e1e" stroke-width="1" fill="none"/></g><g class="hd-r" style="animation-delay:5.90s;" transform="translate(902 1278) rotate(0 158 9.5)"><text x="0" y="0" font-family="Virgil, Segoe UI Emoji" font-size="12px" fill="#1e1e1e" text-anchor="start" style="white-space: pre;" direction="ltr" dominant-baseline="text-before-edge">Read -&gt; Edit  (decided edits, in order)</text></g><g class="hd-r" style="animation-delay:7.55s;" transform="translate(902 1334) rotate(0 158 9.5)"><text x="0" y="0" font-family="Virgil, Segoe UI Emoji" font-size="12px" fill="#868e96" text-anchor="start" style="white-space: pre;" direction="ltr" dominant-baseline="text-before-edge">apply edits in order</text></g><g class="hd-r" style="animation-delay:5.90s;" transform="translate(1270 1214) rotate(0 55 19.5)"><text x="0" y="0" font-family="Virgil, Segoe UI Emoji" font-size="28px" fill="#868e96" text-anchor="start" style="white-space: pre;" direction="ltr" dominant-baseline="text-before-edge">. . .  N</text></g><g class="hd-r" style="animation-delay:6.45s;" transform="translate(1266 1260) rotate(0 65 17)"><text x="65" y="0" font-family="Virgil, Segoe UI Emoji" font-size="12px" fill="#868e96" text-anchor="middle" style="white-space: pre;" direction="ltr" dominant-baseline="text-before-edge">one lane</text><text x="65" y="15" font-family="Virgil, Segoe UI Emoji" font-size="12px" fill="#868e96" text-anchor="middle" style="white-space: pre;" direction="ltr" dominant-baseline="text-before-edge">per file</text></g><g class="hd-r" style="animation-delay:5.90s;" stroke-linecap="round" transform="translate(480 1434) rotate(0 210 33)"><path d="M0 0 C87.67 -0.11, 176.17 0.47, 420 0 M0 0 C135.9 1.06, 271.07 1.08, 420 0 M420 0 C418.1 16.73, 418.66 30.62, 420 66 M420 0 C420.53 23.95, 420.27 49.83, 420 66 M420 66 C302.81 66.63, 187.73 66.23, 0 66 M420 66 C318.38 64.37, 217.45 63.91, 0 66 M0 66 C-0.66 48.59, 0.38 30.95, 0 0 M0 66 C-0.21 42.14, -0.37 17.89, 0 0" stroke="#1e1e1e" stroke-width="3" fill="none"/></g><g class="hd-r" style="animation-delay:6.45s;" transform="translate(488 1458) rotate(0 202 12)"><text x="202" y="0" font-family="Virgil, Segoe UI Emoji" font-size="18px" fill="#1e1e1e" text-anchor="middle" style="white-space: pre;" direction="ltr" dominant-baseline="text-before-edge">final summary   (exit)</text></g><g class="hd-r" style="animation-delay:5.90s;" transform="translate(370 1506) rotate(0 320 18)"><text x="320" y="0" font-family="Virgil, Segoe UI Emoji" font-size="13px" fill="#868e96" text-anchor="middle" style="white-space: pre;" direction="ltr" dominant-baseline="text-before-edge">applied / skipped / failed counts</text><text x="320" y="16.25" font-family="Virgil, Segoe UI Emoji" font-size="13px" fill="#868e96" text-anchor="middle" style="white-space: pre;" direction="ltr" dominant-baseline="text-before-edge">re-run the audit to verify FAILs cleared  (idempotent)</text></g><g class="hd-r" style="animation-delay:6.45s;" stroke-linecap="round"><g class="hd-r" style="animation-delay:7.55s;" transform="translate(220 1374) rotate(0 235 30)"><path d="M0 0 C98.15 11.59, 196.5 23.05, 470 60 M0 0 C163.2 18.54, 325.83 39.87, 470 60" stroke="#868e96" stroke-width="2" fill="none"/></g><g class="hd-r" style="animation-delay:6.45s;" transform="translate(220 1374) rotate(0 235 30)"><path d="M440.68 66.35 C446.26 65.98, 451.94 62.11, 470 60 M440.68 66.35 C451.6 63.02, 461.07 62.03, 470 60" stroke="#868e96" stroke-width="2" fill="none"/></g><g class="hd-r" style="animation-delay:6.45s;" transform="translate(220 1374) rotate(0 235 30)"><path d="M443.46 46.02 C448.35 49.93, 453.45 50.32, 470 60 M443.46 46.02 C453.36 49.76, 461.87 55.82, 470 60" stroke="#868e96" stroke-width="2" fill="none"/></g></g><mask/><g class="hd-r" style="animation-delay:5.90s;" stroke-linecap="round"><g class="hd-r" style="animation-delay:5.90s;" transform="translate(640 1374) rotate(0 25 30)"><path d="M0 0 C9.81 11.47, 19.35 24.31, 50 60 M0 0 C17 21.72, 36.09 43.27, 50 60" stroke="#868e96" stroke-width="2" fill="none"/></g><g class="hd-r" style="animation-delay:7.00s;" transform="translate(640 1374) rotate(0 25 30)"><path d="M23.96 45.09 C28.81 47, 33.32 50.38, 50 60 M23.96 45.09 C32.63 50.67, 43.22 56.23, 50 60" stroke="#868e96" stroke-width="2" fill="none"/></g><g class="hd-r" style="animation-delay:7.00s;" transform="translate(640 1374) rotate(0 25 30)"><path d="M39.64 31.85 C41.18 36.46, 42.4 42.62, 50 60 M39.64 31.85 C42.7 42.02, 47.73 52.27, 50 60" stroke="#868e96" stroke-width="2" fill="none"/></g></g><mask/><g class="hd-r" style="animation-delay:7.00s;" stroke-linecap="round"><g class="hd-r" style="animation-delay:6.45s;" transform="translate(1060 1374) rotate(0 -185 30)"><path d="M0 0 C-77.9 13.58, -153.97 25.59, -370 60 M0 0 C-134.16 20.74, -268.63 43.3, -370 60" stroke="#868e96" stroke-width="2" fill="none"/></g><g class="hd-r" style="animation-delay:6.45s;" transform="translate(1060 1374) rotate(0 -185 30)"><path d="M-343.86 45.28 C-349.9 48.63, -352.81 50.76, -370 60 M-343.86 45.28 C-353.17 49.67, -363.23 56.33, -370 60" stroke="#868e96" stroke-width="2" fill="none"/></g><g class="hd-r" style="animation-delay:6.45s;" transform="translate(1060 1374) rotate(0 -185 30)"><path d="M-340.51 65.53 C-347.31 64.64, -350.92 62.53, -370 60 M-340.51 65.53 C-350.94 62.57, -362.21 61.89, -370 60" stroke="#868e96" stroke-width="2" fill="none"/></g></g><mask/></svg>